<?xml version="1.0" encoding="UTF-8"?>
<svg xmlns="http://www.w3.org/2000/svg" version="1.1" viewBox="0 0 500 500">
  <defs>
    <style>
      .cls-1 {
        fill: #874fed;
      }

      .cls-1, .cls-2, .cls-3, .cls-4, .cls-5, .cls-6, .cls-7 {
        stroke-width: 0px;
      }

      .cls-2 {
        fill: #000;
      }

      .cls-3 {
        fill: #cabdde;
      }

      .cls-8 {
        fill: #ff39cd;
      }

      .cls-8, .cls-9, .cls-10, .cls-11, .cls-12, .cls-13, .cls-14, .cls-15, .cls-16, .cls-17 {
        stroke: #000;
        stroke-width: 1.5px;
      }

      .cls-8, .cls-10, .cls-12, .cls-13, .cls-15, .cls-16 {
        stroke-miterlimit: 10;
      }

      .cls-4, .cls-11 {
        fill: #f7e5c1;
      }

      .cls-5 {
        fill: #eb5897;
      }

      .cls-9 {
        fill: none;
      }

      .cls-9, .cls-11, .cls-14, .cls-17 {
        stroke-linecap: round;
        stroke-linejoin: round;
      }

      .cls-10 {
        fill: #fcc256;
      }

      .cls-12 {
        fill: #c6d92e;
      }

      .cls-13 {
        fill: #ee1b34;
      }

      .cls-14, .cls-7 {
        fill: #eabd63;
      }

      .cls-15 {
        fill: #b31427;
      }

      .cls-16 {
        fill: #3b3bff;
      }

      .cls-17, .cls-6 {
        fill: #fff;
      }

      .cls-18 {
        display: none;
      }
    </style>
  </defs>
  <g id="BACKGROUND" class="cls-18">
    <rect class="cls-1" width="500" height="500"/>
  </g>
  <g id="OBJECTS">
    <path class="cls-5" d="M413.4,148.61c-29.48-69.46-126.53-86.63-216.77-38.37-90.24,48.27-139.5,143.7-110.02,213.16,29.48,69.46,126.53,86.63,216.77,38.37,90.24-48.27,139.5-143.7,110.02-213.16Z"/>
    <g>
      <ellipse class="cls-3" cx="250" cy="415.39" rx="115.69" ry="16.79"/>
      <g>
        <path class="cls-14" d="M182.75,208.93h-.02c-33.26-.06-56.43-8.61-68.86-25.4-15.02-20.3-7.93-44.46-7.62-45.48,1.36-4.49,6.11-7.03,10.6-5.66,4.48,1.36,7.01,6.08,5.67,10.56-.1.35-4.83,17.33,5.11,30.6,8.96,11.97,28.02,18.33,55.12,18.38,4.69,0,8.49,3.82,8.48,8.52,0,4.69-3.81,8.48-8.5,8.48Z"/>
        <path class="cls-2" d="M121.56,157.37c-.83-7.89.92-14.21.98-14.42,1.34-4.48-1.2-9.2-5.67-10.56-4.49-1.36-9.24,1.17-10.6,5.66-.15.5-1.91,6.5-1.94,14.87,3.26,2.13,8.87,4.6,17.23,4.45Z"/>
        <path class="cls-2" d="M182.74,208.93h.02c4.69,0,8.49-3.79,8.5-8.48,0-4.69-3.79-8.51-8.48-8.52-2.21,0-4.37-.05-6.48-.14-1.32,4.31-4.18,11.24-9.88,16.35,5.14.52,10.58.79,16.32.8Z"/>
        <path class="cls-17" d="M151.42,103.05c-3.78-5.26-9.92-5.66-9.98-5.66-.63-.09-2.14-.29-4.22-.4-.24-.01-.46-.14-.59-.34-.13-.2-.16-.45-.07-.67,1.19-3.18,7.3-19.31,10.41-25.01,2.3-4.2,2.99-7.21,2.1-9.19-.53-1.22-1.68-2.04-3.42-2.46-4.73-1.12-16.92,5.87-23.67,27.12-.1.33-.42.54-.76.52-.34-.02-.63-.27-.69-.6-.5-2.56-1.76-4.24-3.87-5.13-3.14-1.34-6.41-.12-9.73,3.62-.16.18-.4.28-.64.25-.24-.03-.46-.17-.57-.38-.71-1.27-1.69-2.14-2.98-2.67-.86-.36-1.7-.52-2.51-.52-6.85,0-12,11.29-12.06,11.42-.06.11-3.85,7.6-1.91,13.61.04.13.05.26.02.39-1.79,8-2.41,22.45,13.65,29.4.21.09.36.27.42.48.06.22.02.45-.1.63-.77,1.11-2.43,3.98-1.32,6.76,1.36,3.38,6.27,5.48,14.59,6.25,1.91.18,3.69.27,5.29.27,5.83,0,9.47-1.15,10.84-3.42,1.07-1.79.43-3.81-.05-4.86-.1-.21-.09-.46.02-.67.11-.21.31-.35.54-.39,8.35-1.33,19.09-5.85,22.77-19.84,2.09-7.99,1.58-14.22-1.51-18.51Z"/>
        <g>
          <path class="cls-9" d="M134.14,130.75s-3.39-8.64,1.13-13.65"/>
          <path class="cls-9" d="M118.45,99.6s6.24-14.97-1.78-18.39-14.58,11.17-14.58,11.17c0,0-7.36,15.77,3.68,19.84,8.24,3.04,12.68-12.62,12.68-12.62Z"/>
          <path class="cls-9" d="M142.55,115.38s-24.7,8.28-26.15-6.83,24.96-11.17,24.96-11.17c0,0,17.61,1.18,11.56,24.18-6.04,22.99-31.01,20.23-31.01,20.23"/>
          <path class="cls-9" d="M86.32,106.76c-2.32,10.15-2.11,26.48,20.62,31.87"/>
          <path class="cls-9" d="M136.2,96.92s7.27-19.55,10.77-25.95c2.83-5.16,4.2-10.34-1.31-11.65s-18.9,7.73-25.04,31.89"/>
          <path class="cls-9" d="M100.8,136.71s-10.15,11.64,12.71,13.75c22.86,2.1,15.63-8.87,15.63-8.87"/>
          <path class="cls-9" d="M102.09,92.39s1.58-3.5,4.13-6.67c-.59-1.6-1.67-2.93-3.48-3.69-8.01-3.35-14.58,10.94-14.58,10.94,0,0-7.49,14.65,3.68,19.44,3.81,1.64,6.86-1.06,9.01-4.35-3.21-6.16,1.24-15.68,1.24-15.68Z"/>
        </g>
      </g>
      <g>
        <path class="cls-17" d="M386.75,249.36c.96-.54,1.83-1.22,2.65-2.07.22-.23.56-.29.84-.16.81.36,2.97,1.2,5.52,1.2,2.02,0,3.86-.52,5.47-1.54,2.81-1.8,4.86-5.15,6.08-9.95.04-.16.13-.3.25-.4,2.32-1.89,13.34-12.29,2.12-31.23-3.59-6.07-9.89-9.95-16.85-10.38-6.1-.39-13.43.23-21.8,1.84-.06.01-.12.02-.17.01-1.13-.04-11.24-.2-17.99,6.18-3.89,3.68-5.89,8.82-5.93,15.28,0,1.09.16,6.58,4.04,9.35.71.5,1.51.89,2.36,1.14.24.07.43.26.5.5.07.24.02.5-.13.69-1.52,1.88-3.96,5.62-3.12,9.6.72,3.5,3.85,6.35,9.28,8.48,4.16,1.63,7.81,1.75,10.74.37.1-.05.21-.07.32-.07.12,0,.25.03.36.09,1.11.6,5.09,2.57,9.48,2.57,2.22,0,4.24-.5,5.99-1.49Z"/>
        <g>
          <path class="cls-9" d="M354.52,228.89s-12.15,12.16,5.34,19.01c17.5,6.85,20.62-14.88,18.68-22.74"/>
          <path class="cls-9" d="M370.94,248.1s23.92,14.17,24.34-21.92"/>
          <path class="cls-9" d="M389.76,246.9s20.79,10.97,18.76-28.25"/>
          <path class="cls-9" d="M407.37,236.58s14.66-10.54,2.32-31.38c-3.56-6.01-9.88-9.95-16.85-10.39-5.12-.32-12.23,0-21.89,1.86,0,0-23.84-1.18-24,21.47,0,0-.42,15.72,16.57,9.38"/>
          <path class="cls-9" d="M362.6,219.09c1.05,4.15,1.85,10.63-.74,17.09"/>
        </g>
        <path class="cls-17" d="M391.21,204.65c7.9-5.87,4.23-12.86,4.23-12.86,0,0-2.59-10.71-20.06-7.44,0,0-22.65,1.35-15.78,19.83,0,0,2.24,6.64,12.48,6.54"/>
        <path class="cls-14" d="M357.81,145.73c-17.81-5.27-39.2,8.95-65.38,43.46l13.54,10.27c28.69-37.83,42.42-38.78,47-37.44,9.63,2.84,14.27,23.67,15.01,33.31,0,0,.59,5.36,8.56,4.13,7.97-1.23,8.39-5.39,8.39-5.39-.31-4.22-3.71-41.42-27.13-48.35Z"/>
        <path class="cls-2" d="M306.8,171.77c-4.62,5.09-9.41,10.89-14.36,17.43l13.54,10.27c3.74-4.94,7.23-9.23,10.48-12.99-7.01-3.6-9.07-11.11-9.66-14.71Z"/>
      </g>
      <g>
        <polygon class="cls-17" points="222.42 361.04 215.77 388.66 205.94 384.91 212.42 357.23 222.42 361.04"/>
        <polygon class="cls-14" points="230.01 282.07 212.42 357.23 222.42 361.04 240.7 285.13 230.01 282.07"/>
        <path class="cls-2" d="M230.01,282.07l-4.34,18.55c2.58,2.07,6.2,5.45,8.93,9.86l6.1-25.35-10.69-3.06Z"/>
        <path class="cls-16" d="M206.54,398.6c-13.49-51.99-67.45-15.28-67.45-15.28l69.55,34.94,7.13-29.6-9.83-3.75-1.82,6.29"/>
        <polygon class="cls-8" points="207.03 380.24 216.89 384 218.1 378.99 208.21 375.22 207.03 380.24"/>
        <polygon class="cls-8" points="209.27 370.71 219.18 374.49 220.39 369.47 210.44 365.68 209.27 370.71"/>
        <polygon class="cls-17" points="209.34 352.82 207.93 359.15 225.63 366.33 227.04 360 209.34 352.82"/>
        <path class="cls-17" d="M146.29,379.13c-4.43,2.31-7.2,4.19-7.2,4.19l69.55,34.93,1.68-6.97-64.02-32.16Z"/>
      </g>
      <g>
        <g>
          <path class="cls-17" d="M340.63,335.85c-8.68,11.78-16.55,19.62-23.64,24.33l-7.58-10.15c6.21-3.51,13.31-10.69,21.42-22.76l9.8,8.58Z"/>
          <path class="cls-16" d="M395.56,344.78s-45.94,28.05-51.67-13.47c-1.1,1.58-2.18,3.09-3.26,4.54l-9.8-8.58c4.1-6.06,8.43-13.36,13.04-22.05l51.69,39.56Z"/>
          <path class="cls-8" d="M324.48,354.27c1.21-1.1,2.44-2.28,3.7-3.56l-7.97-9.7c-1.24,1.34-2.45,2.56-3.63,3.65l7.9,9.62Z"/>
          <path class="cls-8" d="M324.25,336.29l8.12,9.89c1.1-1.26,2.22-2.58,3.36-3.97l-8.29-10.09c-1.08,1.48-2.15,2.87-3.19,4.18Z"/>
          <path class="cls-14" d="M316.99,360.18c-48.08,31.91-61.23-79.5-61.23-79.5l12.62-1.77s7.11,90.33,41.03,71.12l7.58,10.15Z"/>
          <path class="cls-2" d="M260.41,306.1c2.99-2.92,6.61-5.77,10.55-7.45-1.91-11.24-2.58-19.75-2.58-19.75l-12.62,1.77s1.32,11.17,4.65,25.42Z"/>
          <polygon class="cls-17" points="310.02 344.99 305.65 349.77 317.42 364.82 321.79 360.04 310.02 344.99"/>
        </g>
        <path class="cls-17" d="M341.11,310.31l49.53,37.1c3.04-1.48,4.91-2.63,4.91-2.63l-51.69-39.56c-.93,1.76-1.85,3.45-2.76,5.09Z"/>
        <path class="cls-9" d="M343.31,321.79c0,3.52.19,6.68.58,9.52"/>
      </g>
      <g>
        <path class="cls-7" d="M339.89,276.78c-3.22-.88-6.15-3.34-8.05-6.75-1.5-2.7-2.42-5.9-2.97-10.38-.57-4.64-.63-9.38-.17-14.09.19-2.03.5-4.18,1.46-6.13.39-.81.89-1.54,1.48-2.18.15-.16.18-.4.07-.59-.11-.19-.33-.29-.54-.24-3.25.74-8.04,2.26-12.38,5.32-3.55,2.5-9.71,3.01-16.87,3.59-7.16.59-15.27,1.26-21.65,4.27-.2.09-.31.3-.28.51.03.21.18.39.39.43,3.03.63,5.85,1.55,8.62,2.8.12.06.18.21.12.33-.04.08-.1.12-.14.13-.04.01-.11.03-.2-.01-12.11-5.5-23.28-3.57-34.08-1.71-6.34,1.09-12.95,2.21-19.57,1.74-12.63-.97-22.52-.54-27.29-.19-.21.02-.39.16-.44.36-.06.2.02.42.19.54,1.75,1.27,3.65,2.89,5.8,4.93.07.06.08.14.08.18,0,.04,0,.11-.06.17-.11.11-.28.09-.36.02-9.49-9.04-13.08-8.88-20.26-8.54-2.96.14-6.65.31-11.66-.21-16.41-1.69-19.12-4.95-19.22-5.08-.04-.05-.06-.12-.05-.19,0-.04.02-.11.09-.16.11-.08.26-.07.38.08.14.14.69.64,2.16,1.31.25.11.55,0,.66-.25.36-.79,1.08-2.52,1.8-5.3.04-.14.01-.29-.07-.41s-.21-.2-.35-.22c-1.41-.18-4.21-.21-7.03,1.64-3.96,2.59-6.54,7.84-7.66,15.6-1.29,8.9-.6,14.52,2.23,18.22,3.66,4.81,11.1,6.66,22.7,8.23.23.04.46-.1.54-.33.08-.22,0-.47-.21-.59-4.79-2.97-6.23-5.76-6.28-5.87-.06-.13-.02-.28.11-.34.12-.06.27,0,.33.12.08.15,8.4,14.98,48.69,12.34.24-.02.43-.19.46-.43.03-.23-.1-.46-.32-.54-10.38-3.8-12.15-3.52-12.16-3.52-.13.03-.26-.09-.27-.23-.01-.13.07-.25.19-.26.12-.01,3.27-.3,21.6,7.11,3.02,1.22,6.21,1.73,9.42,1.73,15.72,0,32.07-12.23,32.91-12.87.05-.04.11-.06.18-.05.06,0,.12.04.16.09.08.11.07.27-.06.37-1.13.86-5.25,3.88-10.95,6.8-.21.11-.31.34-.26.56.05.22.25.38.48.38,5.88.06,21.14-.2,36.03-3.75.23-.06.4-.27.38-.51-.01-.24-.2-.44-.43-.47-4.51-.59-7.05-1.42-7.16-1.46-.06-.02-.12-.07-.15-.13-.02-.03-.04-.1-.01-.18.03-.09.09-.13.12-.15.06-.03.13-.04.22,0,1.47.45,14.92,4.27,34.92-.03l14.61-4.6c.21-.07.35-.26.35-.49,0-.22-.15-.41-.37-.47Z"/>
        <g>
          <path class="cls-4" d="M325.54,237.16c-3.69-17.28-12.05-33.2-16.71-41.15l-1.52-2.59.6,2.94c.54,2.66.94,5.26,1.18,7.73.01.14-.09.26-.25.27-.12,0-.23-.1-.24-.23-2.43-24.62-18.2-48.52-18.33-48.71l-.05-.12c-.46-1.33-11.26-32.71-20.42-40.35-9.12-7.6-12.04-14.89-12.34-15.69-.05-.13.02-.28.14-.32.14-.05.28.02.34.2.37.92,2.49,5.77,7.83,11.37l1.29,1.35-.45-1.82c-3.71-15.15-16.71-28.63-16.8-28.72-.04-.04-.06-.09-.07-.14-2.01-9.01-4.5-13.64-7.42-13.77-6.21-.23-12.53,19.73-12.63,20-9.38,12.71-15.14,26.5-17.75,33.58l-1.23,3.34,2.1-2.87c2.91-3.98,4.36-6.54,5.75-10.12.03-.08.1-.12.13-.14.04-.02.11-.04.19,0,.13.05.19.19.14.32-1.85,4.76-3.88,7.8-8.65,13.98l-.1.14c-1.43,1.84-3.08,3.95-5.08,6.48l-1.63,2.07c-10.3,13.09-23.25,48.48-23.6,60.81-.32,11.52-1.29,20.09-1.4,21.04-.02.13-.12.23-.28.23-.13-.02-.23-.15-.21-.31l.02-.19c.38-3.49.65-6.91.81-9.17l.12-1.78-1.03,1.45c-2.34,3.29-7.85,12.04-8.54,22.1-.77,11.22-3.11,17.03-3.81,18.54l-.23.49.51.19c3.48,1.28,8.75,2.31,15.26,2.98,4.96.52,8.63.34,11.58.2,4.92-.24,8.16-.4,12.86,2.44l.14.09.17-.02c1.29-.13,13.06-1.21,29.25.02,1.13.09,2.25.13,3.36.13,5.32,0,10.57-.9,16.06-1.85l-.08-.49s0,0,0,0l.18.48c7.48-1.28,15.21-2.61,23.26-1.45l.17.02.15-.09c6.71-3.85,15.68-4.58,23.6-5.23,6.77-.56,13.17-1.08,16.6-3.5,1.99-1.4,4.25-2.62,6.73-3.62l.39-.16-.09-.41Z"/>
          <g>
            <g>
              <path class="cls-9" d="M178.33,216.02s1.05-8.76,1.4-21.02,13.31-47.82,23.65-60.96,12.96-16.29,15.42-22.6"/>
              <path class="cls-9" d="M210.17,125.38s6-20.07,19.31-38.12c0,0,12.79-40.82,20.5-6.13,0,0,14.36,14.72,17.34,31.01"/>
              <path class="cls-9" d="M257.69,99.18s2.8,7.71,12.26,15.59c9.46,7.88,20.5,40.47,20.5,40.47,0,0,15.94,24,18.39,48.88"/>
              <path class="cls-9" d="M306.67,192s14.27,21.57,19.25,45.73"/>
              <path class="cls-9" d="M179.33,204.11s-9.19,10.86-10.11,24.26c-.92,13.4-4.07,19.05-4.07,19.05"/>
              <path class="cls-9" d="M162.13,245.85s2.5,3.28,19.05,4.99,18.39-4.2,32.06,8.8"/>
              <path class="cls-9" d="M205.73,253.57s11.97-1.34,29.45,0,34.29-8.83,53.74,0"/>
              <path class="cls-9" d="M334.93,235.53s-8.74.69-16.27,6.01c-7.53,5.31-27.99,1.55-40.45,8.86"/>
            </g>
            <g>
              <path class="cls-14" d="M339.78,236.22c2.57.94,4.64,2.95,6.08,5.28s2.28,4.97,2.97,7.62c1.39,5.37,2.16,10.9,2.29,16.44.06,2.64-.06,5.44-1.49,7.67-1.94,3.02-6.03,4.24-9.5,3.36s-6.32-3.54-8.06-6.68-2.5-6.73-2.94-10.29c-.57-4.65-.63-9.37-.17-14.04.2-2.07.52-4.17,1.43-6.05s2.51-3.5,4.53-4.01c2.12-.53,2.8-.06,4.85.69Z"/>
              <path class="cls-11" d="M339.06,242.12c1.52.62,2.81,2.06,3.73,3.76s1.53,3.64,2.03,5.6c1.03,3.97,1.71,8.09,2.01,12.23.15,1.98.19,4.08-.54,5.79-.99,2.32-3.3,3.37-5.35,2.82s-3.8-2.45-4.94-4.74-1.73-4.95-2.13-7.6c-.53-3.46-.76-6.99-.69-10.5.03-1.56.13-3.14.58-4.57s1.3-2.7,2.45-3.15c1.2-.46,1.61-.13,2.83.36Z"/>
              <path class="cls-9" d="M167.42,240.77s-12.78-3.59-15.8,17.3c-3.02,20.89,4.58,24.18,27.71,27.07"/>
              <path class="cls-9" d="M171.06,277.64s8.06,16.03,52.34,12.22"/>
              <path class="cls-9" d="M207.93,285.13s2.94-.39,21.47,7.09,42.57-11.17,42.57-11.17"/>
              <path class="cls-9" d="M290.28,282.59s13.84,4.55,35.04,0l18.56-5.84"/>
              <path class="cls-9" d="M258.19,289.19s22.1,1.13,42.77-4.58"/>
            </g>
          </g>
        </g>
        <g>
          <path class="cls-11" d="M214.01,249.02c1.96-.25,3.63,1.59,4.19,3.49s.42,3.94.9,5.86,1.93,3.88,3.91,3.88c2.01,0,3.47-2,3.95-3.95s.34-4.03.97-5.94c1-3.02,4.03-5.24,7.21-5.27"/>
          <path class="cls-11" d="M253.14,246.08c4.71,1.41,8.35,5.85,8.8,10.75.25,2.72-.4,5.42-.69,8.14s-.14,5.66,1.47,7.86,5.09,3.18,7.14,1.38c2.18-1.92,1.54-5.38,1.11-8.25-1.43-9.46,1.68-19.51,8.2-26.52"/>
          <path class="cls-11" d="M303.15,240.5c2.44-.64,4.83,1.44,5.88,3.74s1.31,4.91,2.45,7.16c.85,1.67,2.71,3.22,4.42,2.49,1.16-.5,1.71-1.84,1.87-3.1.36-2.78-.58-5.55-.83-8.34s.51-6.08,3.04-7.29"/>
        </g>
        <g>
          <g>
            <ellipse class="cls-13" cx="225.04" cy="128.13" rx="7.45" ry="8.15"/>
            <path class="cls-15" d="M225.04,119.98c-.61,0-1.19.09-1.76.24,3.26.87,5.69,4.07,5.69,7.91s-2.43,7.04-5.69,7.91c.56.15,1.15.24,1.76.24,4.11,0,7.45-3.65,7.45-8.15s-3.33-8.15-7.45-8.15Z"/>
          </g>
          <g>
            <ellipse class="cls-13" cx="225.04" cy="227.01" rx="7.45" ry="8.15"/>
            <path class="cls-15" d="M225.04,218.86c-.52,0-1.02.06-1.51.17,3.39.76,5.94,4.04,5.94,7.98s-2.55,7.21-5.94,7.98c.49.11.99.17,1.51.17,4.11,0,7.45-3.65,7.45-8.15s-3.33-8.15-7.45-8.15Z"/>
          </g>
          <g>
            <ellipse class="cls-13" cx="262.73" cy="208.77" rx="9.93" ry="10.86" transform="translate(-65.11 137.12) rotate(-26.14)"/>
            <path class="cls-15" d="M271.65,204.39c-2.64-5.39-8.78-7.79-13.7-5.38-1.53.75-2.77,1.89-3.66,3.25.44-.33.92-.63,1.43-.89,4.92-2.42,11.06,0,13.7,5.38,1.82,3.71,1.51,7.86-.46,10.87,3.82-2.85,5.06-8.42,2.7-13.24Z"/>
          </g>
          <g>
            <ellipse class="cls-13" cx="296.68" cy="219.09" rx="12.28" ry="14.23" transform="translate(-54.96 107.87) rotate(-18.89)"/>
            <path class="cls-15" d="M308.3,215.12c-2.54-7.44-9.81-11.68-16.23-9.49-.54.19-1.05.42-1.55.69,5.97-1.03,12.25,3.08,14.58,9.89,2.33,6.81-.11,13.91-5.47,16.75.55-.1,1.1-.22,1.64-.4,6.42-2.2,9.56-10,7.01-17.44Z"/>
          </g>
          <g>
            <ellipse class="cls-13" cx="251.95" cy="119" rx="8.19" ry="11.89"/>
            <path class="cls-15" d="M254.35,107.63c1.58,2.17,2.58,5.23,2.58,8.64,0,6.56-3.67,11.89-8.19,11.89-.84,0-1.64-.18-2.4-.52,1.47,2.01,3.44,3.25,5.62,3.25,4.53,0,8.19-5.32,8.19-11.89,0-5.35-2.44-9.88-5.79-11.36Z"/>
          </g>
          <g>
            <ellipse class="cls-13" cx="196.05" cy="225.33" rx="13.29" ry="19.28"/>
            <path class="cls-15" d="M196.05,206.05c-.75,0-1.49.11-2.21.29,6.29,1.53,11.08,9.44,11.08,18.99s-4.8,17.46-11.08,18.99c.72.18,1.46.29,2.21.29,7.34,0,13.29-8.63,13.29-19.28s-5.95-19.28-13.29-19.28Z"/>
          </g>
        </g>
        <path class="cls-9" d="M252.11,178.29c0,7.38-5.98,13.36-13.36,13.36s-13.36-5.98-13.36-13.36"/>
        <path class="cls-9" d="M222.02,178.82s3.33-2.36,6.74,0"/>
        <path class="cls-9" d="M248.73,178.82s3.33-2.36,6.74,0"/>
      </g>
      <g>
        <path class="cls-12" d="M156.61,145.34s103.01,7.42,166.6-17.18c0,0-18.32,41.67-31.53,62.03-2.07,3.19-6.4,3.93-9.42,1.62-8.26-6.32-24.44-19.89-38.5-38.85l-11.27,1.31s-15.26,25.6-28.51,38.26c-2.17,2.07-5.47,2.39-7.99.77-8.41-5.39-27.38-20-39.37-47.97Z"/>
        <g>
          <path class="cls-2" d="M307.39,142.26c-6.08,12.9-14.57,30.09-21.68,41.47-.88-.69-1.83-1.45-2.84-2.28-3.05-2.48-6.62-5.56-10.47-9.18-5.91-5.56-12.46-12.4-18.73-20.34,5.61-.59,11.26-1.29,16.91-2.12,6.51-.96,13.01-2.08,19.4-3.39,5.92-1.22,11.74-2.6,17.41-4.16Z"/>
          <path class="cls-2" d="M222.49,154.27c-4.63,7.31-14.43,22.12-23.25,31-.14-.09-.28-.19-.43-.3-2.83-1.93-6.67-4.86-10.91-8.91-5.47-5.21-11.6-12.29-17.09-21.51,5.84.2,13.16.38,21.53.39,5.48,0,11.4-.06,17.66-.21,4.03-.11,8.21-.26,12.49-.46Z"/>
        </g>
        <path class="cls-6" d="M213.54,158.91l-14.73,26.06c-2.83-1.93-6.67-4.86-10.91-8.91l10.67-14.82-13.06,2.49,6.83-8.79c5.48,0,11.4-.06,17.66-.21l-6.27,8.26,9.81-4.08Z"/>
        <path class="cls-6" d="M297.63,151.64l-14.76,29.81c-3.05-2.48-6.62-5.56-10.47-9.18l8.13-15.81-13.21,2.98s1.54-4.56,3.26-9.63c6.51-.96,13.01-2.08,19.4-3.39l-4.26,11.27,11.91-6.05Z"/>
        <g>
          <path class="cls-9" d="M307.39,142.26c-6.08,12.9-14.57,30.09-21.68,41.47-.88-.69-1.83-1.45-2.84-2.28-3.05-2.48-6.62-5.56-10.47-9.18-5.91-5.56-12.46-12.4-18.73-20.34,5.61-.59,11.26-1.29,16.91-2.12,6.51-.96,13.01-2.08,19.4-3.39,5.92-1.22,11.74-2.6,17.41-4.16Z"/>
          <path class="cls-9" d="M222.49,154.27c-4.63,7.31-14.43,22.12-23.25,31-.14-.09-.28-.19-.43-.3-2.83-1.93-6.67-4.86-10.91-8.91-5.47-5.21-11.6-12.29-17.09-21.51,5.84.2,13.16.38,21.53.39,5.48,0,11.4-.06,17.66-.21,4.03-.11,8.21-.26,12.49-.46Z"/>
        </g>
      </g>
    </g>
    <g>
      <g>
        <polygon class="cls-10" points="194.15 42.7 191.25 31.95 188.36 42.7 177.61 45.59 188.36 48.49 191.25 59.24 194.15 48.49 204.9 45.59 194.15 42.7"/>
        <polygon class="cls-10" points="446.61 71.61 443.26 59.16 439.91 71.61 427.45 74.96 439.91 78.31 443.26 90.76 446.61 78.31 459.06 74.96 446.61 71.61"/>
        <polygon class="cls-10" points="42.71 199.93 40.81 192.87 38.91 199.93 31.86 201.82 38.91 203.72 40.81 210.77 42.71 203.72 49.76 201.82 42.71 199.93"/>
        <polygon class="cls-10" points="437.84 338.22 435.06 327.88 432.28 338.22 421.94 341 432.28 343.79 435.06 354.13 437.84 343.79 448.18 341 437.84 338.22"/>
      </g>
      <g>
        <polygon class="cls-10" points="138.11 313.82 135.27 303.3 132.44 313.82 121.91 316.66 132.44 319.49 135.27 330.02 138.11 319.49 148.63 316.66 138.11 313.82"/>
        <polygon class="cls-10" points="357.78 119.55 355.88 112.5 353.98 119.55 346.93 121.45 353.98 123.35 355.88 130.4 357.78 123.35 364.83 121.45 357.78 119.55"/>
      </g>
    </g>
  </g>
</svg>